/* XPM */
static char *_5801dbc38734b52bf240c4cf82d551eFa4goikNNUKTOlk3[] = {
/* columns rows colors chars-per-pixel */
"26 27 5 1 ",
"  c None",
". c #2E2533",
"X c #F9C22B",
"o c #FB6B1D",
"O c white",
/* pixels */
"                          ",
"                          ",
"                          ",
"                          ",
"           ....           ",
"          .XXXX.          ",
"          .XXXXo.         ",
"         .OOOOOo.         ",
"         .OOOOO..         ",
"         .OOOOO..         ",
"         .OOOOO..         ",
"         .OOOOo..         ",
"         .OOOOoX.         ",
"         .OOOOoO.         ",
"         .oOOOoO.         ",
"         .oooooO.         ",
"         .XXXXoo.         ",
"         .XXXXoo.         ",
"         .XXXXoo.         ",
"         .XXXXo.          ",
"          ..ooo.          ",
"            ...           ",
"                          ",
"                          ",
"                          ",
"                          ",
"                          "
};
