/* XPM */
static char *cbf16b56adae475c836f52ddde88bb3cAAddWyot0tOS4Vvv[] = {
/* columns rows colors chars-per-pixel */
"21 22 5 1 ",
"  c None",
". c #2E2533",
"X c #F9C22B",
"o c white",
"O c #FB6B1D",
/* pixels */
"                     ",
"                     ",
"         ....        ",
"        .XXXX...     ",
"       .oXXXXXOO.    ",
"      .oooooOOOO.    ",
"      .oooooOOOOO.   ",
"     .oooooOO..OO.   ",
"     .ooooOOOO.OO.   ",
"     .ooooOOOO.OO.   ",
"    .XXoooOOOOXOO.   ",
"    .XXXXOOOOOoOO.   ",
"    .OOXXOOOOOoO.    ",
"    .XXXOOOOOooO.    ",
"    .XXXXOOO.oOO.    ",
"    .XXXXOO.XOO.     ",
"     .XXXOOOOO.      ",
"      .OOOOOOO.      ",
"       ...OO..       ",
"          ..         ",
"                     ",
"                     "
};
