/* XPM */
static char *result[] = {
/* columns rows colors chars-per-pixel */
"22 22 5 1 ",
"  c #2E2533",
". c #FB6B1D",
"X c #F9C22B",
"o c white",
"O c None",
/* pixels */
"OOOOOOOOOOOOOOOOOOOOOO",
"OOOOOOOOO    OOOOOOOOO",
"OOOOOOO  XXXX  OOOOOOO",
"OOOOO  XXXXXXXX  OOOOO",
"OOOO XXXXXXXXXXX. OOOO",
"OOO XXX.oooo...X.. OOO",
"OOO XX.oooo....... OOO",
"OOO X.oooo........ OOO",
"OO o.oooo.......... OO",
"OO ooooo........... OO",
"OO .oooX........... OO",
"OO ooo............. OO",
"OOO o............. OOO",
"OOO ... .......... OOO",
"OOOO ...  ....... OOOO",
"OOOO ............ OOOO",
"OOOOO  ........  OOOOO",
"OOOOOOO  ....  OOOOOOO",
"OOOOOOOOO    OOOOOOOOO",
"OOOOOOOOOOOOOOOOOOOOOO",
"OOOOOOOOOOOOOOOOOOOOOO",
"OOOOOOOOOOOOOOOOOOOOOO"
};
