/* XPM */
static char *_2f018b704e84630b9df05c67f376309mhDARgEYAI0ecaMK[] = {
/* columns rows colors chars-per-pixel */
"22 22 5 1 ",
"  c None",
". c #2E2533",
"X c #F9C22B",
"o c white",
"O c #FB6B1D",
/* pixels */
"                      ",
"        .....         ",
"       .XXXXX..       ",
"      .XXXXXXXX.      ",
"     .XXXXXXXXXX.     ",
"    .XXXXXXXoXXXX.    ",
"   .XXXXXXXoooXXOO.   ",
"   .XXXOXXoooooOOO.   ",
"  .XXXOXXooooooXOOO.  ",
"  .XXXOXooooooXXOOO.  ",
"  .XXXOooooooXXXXOO.  ",
"  .XXX.oooooXXOXXOO.  ",
"   .Xo.OoooXXXXXXO.   ",
"   .oooXOoXXXOXXXO.   ",
"    .ooooXOOOXXXX.    ",
"     .ooXXXXXXXX.     ",
"      .XXXXXXXX.      ",
"       ...XXX..       ",
"          ...         ",
"                      ",
"                      ",
"                      "
};
