/* XPM */
static char *_966847370194be2e2fa19ad24a76afaXboPJ8J4pj1HnC10[] = {
/* columns rows colors chars-per-pixel */
"22 22 5 1 ",
"  c None",
". c #2E2533",
"X c #F9C22B",
"o c white",
"O c #FB6B1D",
/* pixels */
"                      ",
"                      ",
"         ....         ",
"        .XXXX.        ",
"        .XXXX.        ",
"        .oooo.        ",
"        .oooo.        ",
"        .oooo.        ",
"        .oooo.        ",
"        .oooo.        ",
"        .oooo.        ",
"        .oooo.        ",
"        .OOOO.        ",
"        .OOOO.        ",
"        .XXXX.        ",
"        .XXXX.        ",
"        .XXXX.        ",
"        .XXXX.        ",
"        .OOOO.        ",
"         ....         ",
"                      ",
"                      "
};
