/* XPM */
static char *_40b6e1559d34d5cf170c8993d0e1509uR9B9zl3loaSPRXs[] = {
/* columns rows colors chars-per-pixel */
"32 32 12 1 ",
"  c #48505B",
". c #49515C",
"X c #4A525D",
"o c #4B535E",
"O c #4C545F",
"+ c #4D5560",
"@ c #4E5661",
"# c #4F5762",
"$ c #505863",
"% c #515964",
"& c #525A65",
"* c #535B66",
/* pixels */
"$O@$@@$O@@$@@@@OO@@$$@Oooo@@oo@@",
"$@@@ooOoO@@@@@@OoO@@@@@@OO$&@OOo",
"O@OoOOO@@@OO@@@o@@$@OoO@OoOOo@$@",
"O@@O@@O$@@@OO@Oo@@@@OoO@@oooo@&&",
"@&$@$@oO@@@OoOOO@Ooo@@@@$@@@@@@o",
"@$@@@@OOO@@OoO@@@Ooo@@@@$@@@@@@O",
"@OoO@@$@@@@OO@@@@@@@@@oo@Oooo@$@",
"&OoOo@&@&$@O@@@@O@@@@OOO@@@$@@@o",
"@@@Oo@@&$@ooO@@@@$@o@@@$@OO@$@oO",
"O@@@OO@O@@@OooO@@@@O@@@@@@@@@Ooo",
"O@@@OOOOO@@@ooO@@O@@O@@@@@@@@@@o",
"@@@OoO@@o@@@OO@&@o@@oO@@O@@@@$$@",
"O@@ooo@@@@@@O@@$@o@@oO$@O@@@@@@O",
"o@@@@@@@@@OOO@@@@@@@O@@@@@@@@@@O",
"@@&$@@@@@@@@@@OOO@@@@@@@@@@$@@@@",
"@$$@O@@@O@@@@@@@o@@@@@o$OoO@@O@$",
"@@@@@@@@@$@@@@@@OO$@oO@oO@@OO@@@",
"@@O@@@@@oo@@@@oo@@$@oO@o@@@@@@@@",
"@@@OOOOO@@@@@@@@$@@@oO@@@@@@@@@@",
"@@@@@OOO$@o@@oO@@OO@@@@@@@O@@@@@",
"oO@@@@@@OO@$$@oOOOO@@@O@@@O@@@@&",
"OO@@@@@@@@@@@@@@@@@@$@oO@@O@@@@&",
"@@@OOOO@@@Ooo@@@o$@o@@OO@@@@@@@@",
"@Ooooo@@o@$@@&&@ @o @$@@O@@@@@@o",
"@@@@$$$@O@@OoO@&@@@@@&&&@@@@@@@@",
"&$@@@@@@@@@oo@@@@@@OO@oo@@@@@@@@",
"@@@@@@@@@@@O@@@OoO@@@@Oo@@@@@@@@",
"@OOO@@$&@@@@@@@@o@@@@@@O@@@@@@@@",
"@@@@@@@OoO@@O@@@@@@O@@@o@@@@@@@@",
"$@@@@@@Oo@@@@@@@@@OoO@@@@@@@@@@@",
"@@@@@@$@@@@@@$$@@@OO@@$@@@@@@@$&",
"@@@@@@$&$@@O@$@O@@@OO@Oo@@@@@$&&"
};
