/* XPM */
static char *a0ed3f21f60c4149dc0521881d7c514el9ZjToGNvw0cfvbQ[] = {
/* columns rows colors chars-per-pixel */
"32 32 15 1 ",
"  c None",
". c #131313",
"X c gray52",
"o c #B4B4B4",
"O c white",
"+ c #622461",
"@ c #3B1443",
"# c gray24",
"$ c #423934",
"% c #796755",
"& c #A08662",
"* c #C7B08B",
"= c #E4D2AA",
"- c #93388F",
"; c #5A4E44",
/* pixels */
"                                ",
"                                ",
"                                ",
"                                ",
"             .......            ",
"            .XoOO+@@..          ",
"           .XoOOOO+@@@.         ",
"           .#XoOOOO++++.        ",
"           .XoOOOOOOOOO.        ",
"    $$$$$$$.#XoOO.OOOO..        ",
"   $%&*==*&.XoOOO-.OO.-.        ",
"   $$$$$$$$.#XoOO-.++.-.        ",
"    $;%;;%;.XoOO.OOOOOO.        ",
"    $;;%%;;.#XoO@.......        ",
"    $;*&&*;.XoOOO@@@@@@..$$$$   ",
"    $%&**&%$..oOOOOOOOO.O.%%%$  ",
"    $%&**&%$.O.........OO.&&&$  ",
"    $;*&&*;.OOO@+@O@+@OO.$$$$   ",
"    $;;%%;;.O#OO@OO@+@O.        ",
"    $;%;;%;.OO.OOO@+@OO.        ",
"   $$$$$$$$.OO.oOO@+@OO.        ",
"   $%&*==*&%..ooo@+@ooo.        ",
"    $$$$$$$$ ..........         ",
"             .oO.  .oO.         ",
"             .oO.  .oO.         ",
"             .ooO. .ooO.        ",
"             ..... .....        ",
"                                ",
"                                ",
"                                ",
"                                ",
"                                "
};
