/* XPM */
static char *d86e3d439468413887fc0ade07bae4faTLcAJS147IDyWyw6[] = {
/* columns rows colors chars-per-pixel */
"32 32 55 1 ",
"  c #7B523F",
". c None",
"X c #0D0906",
"o c #0D0806",
"O c #0D0907",
"+ c #8F563B",
"@ c #0C0805",
"# c #90573B",
"$ c #9B5F43",
"% c #C88666",
"& c #6F4937",
"* c #422517",
"= c #7E4B33",
"- c #902A1F",
"; c #3A1B0F",
": c #6E412C",
"> c #945A3E",
", c #7A4830",
"< c #573322",
"1 c #895238",
"2 c #5F3623",
"3 c #6D190F",
"4 c #31180E",
"5 c #D08B6A",
"6 c #821B10",
"7 c #7A1E15",
"8 c #84271D",
"9 c #872319",
"0 c #5E2A16",
"q c #8C5339",
"w c #643A27",
"e c #724B38",
"r c #8A2D22",
"t c #702C1D",
"y c #982F25",
"u c #975C40",
"i c #912217",
"p c #7B2319",
"a c #79160B",
"s c #421D11",
"d c #6C3F2A",
"f c #B77656",
"g c #8B3328",
"h c #180D07",
"j c #9B261B",
"k c #A4362A",
"l c #99392F",
"z c #5B1D10",
"x c #822D21",
"c c #A6694C",
"v c #532614",
"b c #772E1E",
"n c #8B160A",
"m c #A43D32",
"M c #B17153",
/* pixels */
"@OX@@@oX@@@@@@@@@oX@@@oX@@@@@@@@",
"e. 5%%. 5%%%%%%%%. 5%%. 5%%%%%%e",
"e= 5$>= 5>=>>>>>>: 5$>= 5>=>>>$&",
"&$%$+#d f=<#++=1#w.$+#d f=<#++q&",
"&$#++#w.$=<#+#<=+c$++#w.$=<#+$&X",
"&$++++c$#=*q+#<d##++++c$#=*q+u% ",
"&$++qq#+#=*,+q*21+++qq#+#=*,++f ",
"&$+,ww,++1*<,:4*d1+,ww,++1*<,+f ",
"&$+:@h21+:4h<*b;;,,;@h21+:4h:+$e",
"&$12;v*ww*zv@;-x;<;40v*ww*z;:#$&",
"&u,*tr;@@48x038k3@4gkr;@@48s:#$&",
"&<@4*rt00t3789-yi00-j-t00t3;:+$&",
"&u11*z9a3337p-kmj9gxka9a33z*=+u&",
"e$+#ds-9338r8-ymj9g8j6-933;2>e,&",
" f+#:sk7-796p8-yj-g8aak7-3;:#$4X",
" 5u#:;--p67688gl6ilxj9--p7;:+M5 ",
" 5M+:;967a77-gllynpprji67a;:#u5 ",
"X4$#:;6-9pp7pgyykna-yi6-9ps:#+f ",
"&,e>2s69ir367yrmkn737i69irsd#+$e",
"&u+=*b6i-8869lxmyna3--6i-80*11u&",
"&$+:;-g00tr8-b0lyia79yg00trs4@<&",
"&$#:sp4@@;r-x4@bljz0pp4@@;rt*,u&",
"&$#:st*ww*v04;<sb-;@0t*ww*v;21$&",
"e$+:h4:+12h@;,,;;t*<h4:+12h@:+$&",
" f+,<*1++,ww,+1d*4:,<*1++,ww,+$&",
" f++,*=#+#qq+++12*q+,*=#+#qq++$&",
" %u+q*=#$c++++##d<#+q*=#$c++++$&",
"X:$+#<=$.w#++$c+=<#+#<=$.w#++#u&",
"&<=##<=f d#+$.w#1=++#<=f d#+$.&e",
"e$#>>=>5 =>$5 :>>>>>>=>5 =>$5 =e",
"e%%%%%%5 .%%5 .%%%%%%%%5 .%%5 .e",
"@@@@@@@@Xo@@@Xo@@@@@@@@@Xo@@@XO@"
};
