/* XPM */
static char *a6814972f95741e4f26c312a688a44b0osNuBf8Or3x9dN7x[] = {
/* columns rows colors chars-per-pixel */
"21 32 144 2 ",
"   c None",
".  c #372D27",
"X  c #353B3C",
"o  c #6E2E0E",
"O  c #652F13",
"+  c #61321A",
"@  c #6C381E",
"#  c #723213",
"$  c #753B1F",
"%  c #7A3819",
"&  c #4D3221",
"*  c #493C2D",
"=  c #553823",
"-  c #533C2E",
";  c #4E443A",
":  c #4B4A3F",
">  c #504737",
",  c #584639",
"<  c #694B38",
"1  c #714B36",
"2  c #225F5F",
"3  c #2B6566",
"4  c #2B7070",
"5  c #2F797A",
"6  c #307576",
"7  c #317D7E",
"8  c #4B4D43",
"9  c #4C5754",
"0  c #4E5D5C",
"q  c #4B615E",
"w  c #59635E",
"e  c #646259",
"r  c #726254",
"t  c #7E6354",
"y  c #4F6769",
"u  c #466D6E",
"i  c #4A6D6C",
"p  c #49706E",
"a  c #417175",
"s  c #577779",
"d  c #537A7C",
"f  c #853A15",
"g  c #8B3D17",
"h  c #8C3F19",
"j  c #913F15",
"k  c #84401E",
"l  c #8D411B",
"z  c #934117",
"x  c #92431C",
"c  c #A2491D",
"v  c #8F4726",
"b  c #994721",
"n  c #934925",
"m  c #9D4B24",
"M  c #964E2B",
"N  c #9D4D28",
"B  c #9B502B",
"V  c #8D5638",
"C  c #8D583E",
"Z  c #9D5B3A",
"A  c #A34C21",
"S  c #A84E21",
"D  c #AD5326",
"F  c #A4522B",
"G  c #AC552B",
"H  c #B05527",
"J  c #B45729",
"K  c #B55A2D",
"L  c #BB5C2D",
"P  c #A55530",
"I  c #AB5731",
"U  c #AD5B35",
"Y  c #AE5C39",
"T  c #B45C34",
"R  c #BA5E33",
"E  c #B25F39",
"W  c #B85F38",
"Q  c #AE613D",
"!  c #BF6134",
"~  c #B4613C",
"^  c #BB623B",
"/  c #C26234",
"(  c #C5663A",
")  c #CA6738",
"_  c #C9693C",
"`  c #855C47",
"'  c #815E4C",
"]  c #9C6D4D",
"[  c #846451",
"{  c #B46440",
"}  c #BC6742",
"|  c #BE6A47",
" . c #C46C45",
".. c #CC6E47",
"X. c #C36C48",
"o. c #CB6F48",
"O. c #CF7048",
"+. c #D17047",
"@. c #307E80",
"#. c #2F8282",
"$. c #328182",
"%. c #3D8385",
"&. c #3E9596",
"*. c #4E8283",
"=. c #548387",
"-. c #5F868C",
";. c #508C8F",
":. c #5C888E",
">. c #419496",
",. c #449799",
"<. c #5F949B",
"1. c #5F989F",
"2. c #63979E",
"3. c #4C9DA0",
"4. c #5D9EA4",
"5. c #649FA3",
"6. c #45A2A4",
"7. c #4DAAAD",
"8. c #54A6AA",
"9. c #5AA9AE",
"0. c #4DADB0",
"q. c #5AADB2",
"w. c #4EB6B9",
"e. c #53B3B5",
"r. c #5FB0B6",
"t. c #56BABD",
"y. c #5BB9BE",
"u. c #63A3A4",
"i. c #61A8A5",
"p. c #62A3AA",
"a. c #61A4AB",
"s. c #62A4AB",
"d. c #66A4AB",
"f. c #61A5AC",
"g. c #62A7AD",
"h. c #61A9AF",
"j. c #55BDC1",
"k. c #54BFC2",
"l. c #54BFC2",
"z. c #5ABCC0",
"x. c #5ABEC3",
"c. c #59BFC4",
"v. c #5ABEC3",
"b. c #54C0C3",
/* pixels */
"                                          ",
"                                          ",
"                                          ",
"              6 ,.w.8.e.6.$.              ",
"          5 6.y.2.;.y *.<.r.0.$.          ",
"        %.y.1.i * O o O & q :.y.,.        ",
"      7 q.-.> # b L } U S f = s d.&.      ",
"      3.4.- c  .^ / X.E / ..D + =.9.3     ",
"    7 r.0 % L ..^ ! ..E / ..! c ; s.>.    ",
"    >.4.- F R ..^ ! +.E ! X.W ! @ =.8.    ",
"    7.d $ ~ R o.~ / ..~ / X.! ( v 9 q.4   ",
"  2 t.i m ~ K } Y L  .T R } T ! P : y.$.  ",
"    9.[ J T K R T L R K L T K L T V u.@.  ",
"    e.] T Q T Q ~ T Q E T Q E E ~ Z i.$.  ",
"    q.w f z j x h z x h z x g z g , f.7   ",
"    j.i F { R ..~ / ..^ / | Y ) W 8 x.$.  ",
"    q.0 M t U ..~ ! ..! / X.T ) W ; f.7   ",
"    j.i B ` T o.^ ! ..^ ! o.T ) W 8 x.$.  ",
"    9.0 F C R X.^ ! ..^ / o.T ) T ; s.7   ",
"    b.p B ' T X.^ / ..^ / ..T ( W 8 c.#.  ",
"    9.0 B [ T X.^ / o.~ / ..W ( T ; p.7   ",
"    j.u F { R X.^ / X.Y / o.W ( U 8 x.$.  ",
"    9.e A G D T G H T F J T D J F < u.7   ",
"    e.] _ X.( X. .( X. .( X. . .X.Q i.#.  ",
"    9.r g l h l l l l l l l l l g 1 5.7   ",
"    j.u m T D ^ I J ! I K ! G K F 8 x.#.  ",
"  2 q.q G  .R o.~ / O.! / X.E ( Y ; h.7   ",
"    a X k B b I M m I N m P n N n . u 3   ",
"                                          ",
"                                          ",
"                                          ",
"                                          "
};
